# xmcd
#
# Track frame offsets: 
#        150
#        24475
#        43963
#        66317
#        87584
#        103738
#        124489
#        142096
#        160253
#        183561
#        204563
#        223760
#        240592
#        259776
#        274814
#
# Disc length: 3975 seconds
#
# Revision: 6
# Processed by: cddbd v1.4PL0 Copyright (c) Steve Scherf et al.
# Submitted via: ExactAudioCopy v0.90b4
#
DISCID=f10f850f
DTITLE=Tim McGraw - Tim McGraw and The Dancehall Doctors
DYEAR=2002
DGENRE=Country
TTITLE0=Comfort Me
TTITLE1=Tickin' Away
TTITLE2=Home
TTITLE3=Red Ragtop
TTITLE4=That's Why God Made Mexico
TTITLE5=Watch the Wind Blow By
TTITLE6=Illegal (feat. Don Henley)
TTITLE7=Sleep Tonight
TTITLE8=I Know How to Love You Well
TTITLE9=Sing Me Home
TTITLE10=She's My Kind of Rain
TTITLE11=Who Are They
TTITLE12=Real Good Man
TTITLE13=All We Ever Find
TTITLE14=Tiny Dancer
EXTD=Curb Records YEAR: 2002 ID3G: 2
EXTT0=
EXTT1=
EXTT2=
EXTT3=
EXTT4=
EXTT5=
EXTT6=
EXTT7=
EXTT8=
EXTT9=
EXTT10=
EXTT11=
EXTT12=
EXTT13=
EXTT14=
PLAYORDER=
